<?xml version="1.0" encoding="UTF-8" standalone="no"?><svg xmlns="http://www.w3.org/2000/svg" xmlns:xlink="http://www.w3.org/1999/xlink" contentScriptType="application/ecmascript" contentStyleType="text/css" height="1256px" preserveAspectRatio="none" style="width:3345px;height:1256px;background:#FFFFFF;" version="1.1" viewBox="0 0 3345 1256" width="3345px" zoomAndPan="magnify"><defs><filter height="300%" id="f1c3zg4xutx4x7" width="300%" x="-1" y="-1"><feGaussianBlur result="blurOut" stdDeviation="2.0"/><feColorMatrix in="blurOut" result="blurOut2" type="matrix" values="0 0 0 0 0 0 0 0 0 0 0 0 0 0 0 0 0 0 .4 0"/><feOffset dx="4.0" dy="4.0" in="blurOut2" result="blurOut3"/><feBlend in="SourceGraphic" in2="blurOut3" mode="normal"/></filter></defs><g><!--MD5=[b3179ce4f793cc951a1964cbf548eaa1]
cluster c--><rect fill="#FFFFFF" filter="url(#f1c3zg4xutx4x7)" height="311.5" style="stroke:#000000;stroke-width:1.5;" width="802" x="1617" y="467"/><text fill="#000000" font-family="sans-serif" font-size="14" font-weight="bold" lengthAdjust="spacing" textLength="59" x="1988.5" y="483.5332">common</text><!--MD5=[fc729ae40511b638ec1ee6febf041dd5]
cluster b--><rect fill="#FFFFFF" filter="url(#f1c3zg4xutx4x7)" height="651" style="stroke:#000000;stroke-width:1.5;" width="1020" x="546" y="7"/><text fill="#000000" font-family="sans-serif" font-size="14" font-weight="bold" lengthAdjust="spacing" textLength="39" x="1036.5" y="23.5332">buyer</text><!--MD5=[79ba9fe6bd8680a6494d18e09b39dfb5]
cluster v--><rect fill="#FFFFFF" filter="url(#f1c3zg4xutx4x7)" height="409.5" style="stroke:#000000;stroke-width:1.5;" width="1245" x="2088" y="835"/><text fill="#000000" font-family="sans-serif" font-size="14" font-weight="bold" lengthAdjust="spacing" textLength="47" x="2687" y="851.5332">vender</text><ellipse cx="1684.8032" cy="521.5087" fill="#FEFECE" filter="url(#f1c3zg4xutx4x7)" rx="51.3032" ry="15.5087" style="stroke:#A80036;stroke-width:1.5;"/><text fill="#000000" font-family="sans-serif" font-size="14" lengthAdjust="spacing" textLength="56" x="1653.8032" y="526.0253">商品閲覧</text><ellipse cx="2212.8032" cy="521.5087" fill="#FEFECE" filter="url(#f1c3zg4xutx4x7)" rx="51.3032" ry="15.5087" style="stroke:#A80036;stroke-width:1.5;"/><text fill="#000000" font-family="sans-serif" font-size="14" lengthAdjust="spacing" textLength="56" x="2181.8032" y="526.0253">商品検索</text><ellipse cx="2350.8032" cy="521.5087" fill="#FEFECE" filter="url(#f1c3zg4xutx4x7)" rx="51.3032" ry="15.5087" style="stroke:#A80036;stroke-width:1.5;"/><text fill="#000000" font-family="sans-serif" font-size="14" lengthAdjust="spacing" textLength="56" x="2319.8032" y="526.0253">農家検索</text><ellipse cx="2350.8032" cy="746.5087" fill="#FEFECE" filter="url(#f1c3zg4xutx4x7)" rx="51.3032" ry="15.5087" style="stroke:#A80036;stroke-width:1.5;"/><text fill="#000000" font-family="sans-serif" font-size="14" lengthAdjust="spacing" textLength="56" x="2319.8032" y="751.0253">名前検索</text><ellipse cx="1852.1887" cy="521.5377" fill="#FEFECE" filter="url(#f1c3zg4xutx4x7)" rx="80.6887" ry="18.5377" style="stroke:#A80036;stroke-width:1.5;"/><text fill="#000000" font-family="sans-serif" font-size="14" lengthAdjust="spacing" textLength="116" x="1793.5015" y="525.4661">ログイン,新規登録</text><ellipse cx="2047.0785" cy="521.7157" fill="#FEFECE" filter="url(#f1c3zg4xutx4x7)" rx="79.0785" ry="18.2157" style="stroke:#A80036;stroke-width:1.5;"/><text fill="#000000" font-family="sans-serif" font-size="14" lengthAdjust="spacing" textLength="112" x="1989.6751" y="525.8395">売れ筋ランキング</text><ellipse cx="2203.1463" cy="746.5942" fill="#FEFECE" filter="url(#f1c3zg4xutx4x7)" rx="61.6463" ry="15.5942" style="stroke:#A80036;stroke-width:1.5;"/><text fill="#000000" font-family="sans-serif" font-size="14" lengthAdjust="spacing" textLength="70" x="2165.1463" y="751.1108">地域別検索</text><ellipse cx="1863.7688" cy="746.6538" fill="#FEFECE" filter="url(#f1c3zg4xutx4x7)" rx="68.7688" ry="16.1538" style="stroke:#A80036;stroke-width:1.5;"/><text fill="#000000" font-family="sans-serif" font-size="14" lengthAdjust="spacing" textLength="84" x="1818.7688" y="751.1704">ブランド検索</text><ellipse cx="2036.7688" cy="746.6538" fill="#FEFECE" filter="url(#f1c3zg4xutx4x7)" rx="68.7688" ry="16.1538" style="stroke:#A80036;stroke-width:1.5;"/><text fill="#000000" font-family="sans-serif" font-size="14" lengthAdjust="spacing" textLength="84" x="1991.7688" y="751.1704">こだわり検索</text><ellipse cx="1003.8032" cy="621.5087" fill="#FEFECE" filter="url(#f1c3zg4xutx4x7)" rx="51.3032" ry="15.5087" style="stroke:#A80036;stroke-width:1.5;"/><text fill="#000000" font-family="sans-serif" font-size="14" lengthAdjust="spacing" textLength="56" x="972.8032" y="626.0253">商品購入</text><ellipse cx="1004.2105" cy="367.665" fill="#FEFECE" filter="url(#f1c3zg4xutx4x7)" rx="96.7105" ry="52.665" style="stroke:#A80036;stroke-width:1.5;"/><text fill="#000000" font-family="sans-serif" font-size="14" lengthAdjust="spacing" textLength="42" x="981.0521" y="333.6498">支払い</text><line style="stroke:#A80036;stroke-width:1.0;" x1="926.9478" x2="1081.4732" y1="336.726" y2="336.726"/><text fill="#000000" font-family="sans-serif" font-size="14" lengthAdjust="spacing" textLength="96" x="954.0521" y="355.2592">extension point</text><text fill="#000000" font-family="sans-serif" font-size="14" lengthAdjust="spacing" textLength="136" x="934.0521" y="372.8686">支払額の一部(全て)を</text><text fill="#000000" font-family="sans-serif" font-size="14" lengthAdjust="spacing" textLength="112" x="946.0521" y="390.478">ポイントで支払う</text><ellipse cx="652.8297" cy="621.5659" fill="#FEFECE" filter="url(#f1c3zg4xutx4x7)" rx="90.8297" ry="20.5659" style="stroke:#A80036;stroke-width:1.5;"/><text fill="#000000" font-family="sans-serif" font-size="14" lengthAdjust="spacing" textLength="140" x="582.8297" y="625.2945">クレジットカード払い</text><ellipse cx="847.7688" cy="621.6538" fill="#FEFECE" filter="url(#f1c3zg4xutx4x7)" rx="68.7688" ry="16.1538" style="stroke:#A80036;stroke-width:1.5;"/><text fill="#000000" font-family="sans-serif" font-size="14" lengthAdjust="spacing" textLength="84" x="802.7688" y="626.1704">コンビニ払い</text><ellipse cx="624.1463" cy="62.5942" fill="#FEFECE" filter="url(#f1c3zg4xutx4x7)" rx="61.6463" ry="15.5942" style="stroke:#A80036;stroke-width:1.5;"/><text fill="#000000" font-family="sans-serif" font-size="14" lengthAdjust="spacing" textLength="70" x="586.1463" y="67.1108">農家の評価</text><ellipse cx="800.0785" cy="62.7157" fill="#FEFECE" filter="url(#f1c3zg4xutx4x7)" rx="79.0785" ry="18.2157" style="stroke:#A80036;stroke-width:1.5;"/><text fill="#000000" font-family="sans-serif" font-size="14" lengthAdjust="spacing" textLength="112" x="742.6751" y="66.8395">農家のお気に入り</text><ellipse cx="998.8478" cy="62.3696" fill="#FEFECE" filter="url(#f1c3zg4xutx4x7)" rx="84.8478" ry="19.3696" style="stroke:#A80036;stroke-width:1.5;"/><text fill="#000000" font-family="sans-serif" font-size="14" lengthAdjust="spacing" textLength="126" x="935.8478" y="66.0981">おすすめの商品表示</text><ellipse cx="1110.7688" cy="159.1538" fill="#FEFECE" filter="url(#f1c3zg4xutx4x7)" rx="68.7688" ry="16.1538" style="stroke:#A80036;stroke-width:1.5;"/><text fill="#000000" font-family="sans-serif" font-size="14" lengthAdjust="spacing" textLength="84" x="1065.7688" y="163.6704">ポイント付与</text><ellipse cx="1426.7688" cy="159.1538" fill="#FEFECE" filter="url(#f1c3zg4xutx4x7)" rx="68.7688" ry="16.1538" style="stroke:#A80036;stroke-width:1.5;"/><text fill="#000000" font-family="sans-serif" font-size="14" lengthAdjust="spacing" textLength="84" x="1381.7688" y="163.6704">ポイント使用</text><path d="M1119,49.5 L1119,75.8516 A0,0 0 0 0 1119,75.8516 L1210.44,75.8516 L1129.29,143.47 L1218.44,75.8516 L1341,75.8516 A0,0 0 0 0 1341,75.8516 L1341,59.5 L1331,49.5 L1119,49.5 A0,0 0 0 0 1119,49.5 " fill="#FBFB77" filter="url(#f1c3zg4xutx4x7)" style="stroke:#A80036;stroke-width:1.0;"/><path d="M1331,49.5 L1331,59.5 L1341,59.5 L1331,49.5 " fill="#FBFB77" style="stroke:#A80036;stroke-width:1.0;"/><text fill="#000000" font-family="sans-serif" font-size="13" lengthAdjust="spacing" textLength="201" x="1125" y="67.9951">支払額の1%をポイントとして付与</text><path d="M1376.5,49.5 L1376.5,75.8516 A0,0 0 0 0 1376.5,75.8516 L1454.29,75.8516 L1432.78,142.83 L1462.29,75.8516 L1549.5,75.8516 A0,0 0 0 0 1549.5,75.8516 L1549.5,59.5 L1539.5,49.5 L1376.5,49.5 A0,0 0 0 0 1376.5,49.5 " fill="#FBFB77" filter="url(#f1c3zg4xutx4x7)" style="stroke:#A80036;stroke-width:1.0;"/><path d="M1539.5,49.5 L1539.5,59.5 L1549.5,59.5 L1539.5,49.5 " fill="#FBFB77" style="stroke:#A80036;stroke-width:1.0;"/><text fill="#000000" font-family="sans-serif" font-size="13" lengthAdjust="spacing" textLength="152" x="1382.5" y="67.9951">1ポイント=1円として使用</text><ellipse cx="3220.7631" cy="914.8885" fill="#FEFECE" filter="url(#f1c3zg4xutx4x7)" rx="95.7631" ry="43.8885" style="stroke:#A80036;stroke-width:1.5;"/><text fill="#000000" font-family="sans-serif" font-size="14" lengthAdjust="spacing" textLength="98" x="3164.7631" y="897.0076">商品ページ作成</text><line style="stroke:#A80036;stroke-width:1.0;" x1="3131.6129" x2="3309.9134" y1="900.0838" y2="900.0838"/><text fill="#000000" font-family="sans-serif" font-size="14" lengthAdjust="spacing" textLength="96" x="3165.7631" y="918.617">extension point</text><text fill="#000000" font-family="sans-serif" font-size="14" lengthAdjust="spacing" textLength="126" x="3150.7631" y="936.2264">テンプレートの使用</text><ellipse cx="3214.1901" cy="1205.538" fill="#FEFECE" filter="url(#f1c3zg4xutx4x7)" rx="103.1901" ry="23.038" style="stroke:#A80036;stroke-width:1.5;"/><text fill="#000000" font-family="sans-serif" font-size="14" lengthAdjust="spacing" textLength="168" x="3130.1901" y="1209.2665">商品ページのテンプレート</text><ellipse cx="2178.2427" cy="915.1485" fill="#FEFECE" filter="url(#f1c3zg4xutx4x7)" rx="73.7427" ry="17.1485" style="stroke:#A80036;stroke-width:1.5;"/><text fill="#000000" font-family="sans-serif" font-size="14" lengthAdjust="spacing" textLength="98" x="2126.2427" y="919.6651">売上推移の表示</text><ellipse cx="2366.0785" cy="915.2157" fill="#FEFECE" filter="url(#f1c3zg4xutx4x7)" rx="79.0785" ry="18.2157" style="stroke:#A80036;stroke-width:1.5;"/><text fill="#000000" font-family="sans-serif" font-size="14" lengthAdjust="spacing" textLength="112" x="2308.6751" y="919.3395">支払い、売上管理</text><ellipse cx="2531.8032" cy="915.0087" fill="#FEFECE" filter="url(#f1c3zg4xutx4x7)" rx="51.3032" ry="15.5087" style="stroke:#A80036;stroke-width:1.5;"/><text fill="#000000" font-family="sans-serif" font-size="14" lengthAdjust="spacing" textLength="56" x="2500.8032" y="919.5253">在庫管理</text><ellipse cx="2709.8297" cy="915.0659" fill="#FEFECE" filter="url(#f1c3zg4xutx4x7)" rx="90.8297" ry="20.5659" style="stroke:#A80036;stroke-width:1.5;"/><text fill="#000000" font-family="sans-serif" font-size="14" lengthAdjust="spacing" textLength="140" x="2639.8297" y="918.7945">評価のフィードバック</text><ellipse cx="2963.1055" cy="915.2211" fill="#FEFECE" filter="url(#f1c3zg4xutx4x7)" rx="126.6055" ry="27.7211" style="stroke:#A80036;stroke-width:1.5;"/><text fill="#000000" font-family="sans-serif" font-size="14" lengthAdjust="spacing" textLength="219" x="2853.6055" y="918.9496">オンラインビジネスのEラーニング</text><!--MD5=[8fc3522a43f8c7199df5e09e5bb0188e]
entity user--><ellipse cx="1838" cy="1029.5" fill="#FEFECE" filter="url(#f1c3zg4xutx4x7)" rx="8" ry="8" style="stroke:#A80036;stroke-width:1.5;"/><path d="M1838,1037.5 L1838,1064.5 M1825,1045.5 L1851,1045.5 M1838,1064.5 L1825,1079.5 M1838,1064.5 L1851,1079.5 " fill="none" filter="url(#f1c3zg4xutx4x7)" style="stroke:#A80036;stroke-width:1.5;"/><text fill="#000000" font-family="sans-serif" font-size="14" lengthAdjust="spacing" textLength="42" x="1817" y="1099.5332">閲覧者</text><!--MD5=[d775e9e69c0aec49f10a9883b4c314c5]
entity buyer--><ellipse cx="148" cy="883" fill="#FEFECE" filter="url(#f1c3zg4xutx4x7)" rx="8" ry="8" style="stroke:#A80036;stroke-width:1.5;"/><path d="M148,891 L148,918 M135,899 L161,899 M148,918 L135,933 M148,918 L161,933 " fill="none" filter="url(#f1c3zg4xutx4x7)" style="stroke:#A80036;stroke-width:1.5;"/><text fill="#000000" font-family="sans-serif" font-size="14" lengthAdjust="spacing" textLength="42" x="127" y="953.0332">購入者</text><!--MD5=[7d2adde53bdabb8db43d12fe8cd1030e]
entity vender--><ellipse cx="2051" cy="1173.5" fill="#FEFECE" filter="url(#f1c3zg4xutx4x7)" rx="8" ry="8" style="stroke:#A80036;stroke-width:1.5;"/><path d="M2051,1181.5 L2051,1208.5 M2038,1189.5 L2064,1189.5 M2051,1208.5 L2038,1223.5 M2051,1208.5 L2064,1223.5 " fill="none" filter="url(#f1c3zg4xutx4x7)" style="stroke:#A80036;stroke-width:1.5;"/><text fill="#000000" font-family="sans-serif" font-size="14" lengthAdjust="spacing" textLength="42" x="2030" y="1243.5332">販売者</text><!--MD5=[b10afb03911134e60e704614be8daf3a]
entity creditSystem--><ellipse cx="278" cy="335.5" fill="#FEFECE" filter="url(#f1c3zg4xutx4x7)" rx="8" ry="8" style="stroke:#A80036;stroke-width:1.5;"/><path d="M278,343.5 L278,370.5 M265,351.5 L291,351.5 M278,370.5 L265,385.5 M278,370.5 L291,385.5 " fill="none" filter="url(#f1c3zg4xutx4x7)" style="stroke:#A80036;stroke-width:1.5;"/><text fill="#000000" font-family="sans-serif" font-size="14" lengthAdjust="spacing" textLength="154" x="201" y="405.5332">クレジット決済システム</text><!--MD5=[56a515e0c5d03ff642788b87d0f1bec0]
entity conveniSystem--><ellipse cx="460" cy="335.5" fill="#FEFECE" filter="url(#f1c3zg4xutx4x7)" rx="8" ry="8" style="stroke:#A80036;stroke-width:1.5;"/><path d="M460,343.5 L460,370.5 M447,351.5 L473,351.5 M460,370.5 L447,385.5 M460,370.5 L473,385.5 " fill="none" filter="url(#f1c3zg4xutx4x7)" style="stroke:#A80036;stroke-width:1.5;"/><text fill="#000000" font-family="sans-serif" font-size="14" lengthAdjust="spacing" textLength="140" x="390" y="405.5332">コンビニ払いシステム</text><!--MD5=[40b1d7e58eccbf70584e4b857ad5c78b]
entity warehouseSystem--><ellipse cx="2532" cy="714.5" fill="#FEFECE" filter="url(#f1c3zg4xutx4x7)" rx="8" ry="8" style="stroke:#A80036;stroke-width:1.5;"/><path d="M2532,722.5 L2532,749.5 M2519,730.5 L2545,730.5 M2532,749.5 L2519,764.5 M2532,749.5 L2545,764.5 " fill="none" filter="url(#f1c3zg4xutx4x7)" style="stroke:#A80036;stroke-width:1.5;"/><text fill="#000000" font-family="sans-serif" font-size="14" lengthAdjust="spacing" textLength="112" x="2476" y="784.5332">倉庫管理システム</text><!--MD5=[e8e19605f697b4325d5e0be796390b16]
reverse link createPages to template--><path d="M3219.83,964.42 C3218.29,1027.73 3215.66,1136.02 3214.54,1182.38 " fill="none" id="createPages-backto-template" style="stroke:#A80036;stroke-width:1.0;stroke-dasharray:7.0,7.0;"/><polygon fill="#A80036" points="3219.95,959.19,3215.7454,968.0962,3219.8357,964.1887,3223.7433,968.2791,3219.95,959.19" style="stroke:#A80036;stroke-width:1.0;"/><text fill="#000000" font-family="sans-serif" font-size="13" lengthAdjust="spacing" textLength="60" x="3219" y="1066.9951">«extends»</text><!--MD5=[423e4e0b63360417c5cb46725a8f446b]
link buyer to user--><path d="M169.06,917.8 C344.05,932.76 1556.33,1036.42 1796.65,1056.96 " fill="none" id="buyer-to-user" style="stroke:#A80036;stroke-width:1.0;"/><polygon fill="none" points="1797.47,1050.01,1816.8,1058.69,1796.28,1063.96,1797.47,1050.01" style="stroke:#A80036;stroke-width:1.0;"/><!--MD5=[77fe761f352d4af17ef796392e7f6f35]
reverse link user to vender--><path d="M1875.99,1087.82 C1920.9,1117.77 1994.06,1166.54 2029.88,1190.42 " fill="none" id="user-backto-vender" style="stroke:#A80036;stroke-width:1.0;"/><polygon fill="none" points="1871.96,1093.55,1859.2,1076.63,1879.73,1081.9,1871.96,1093.55" style="stroke:#A80036;stroke-width:1.0;"/><!--MD5=[231c5e5a847ffed7df82740c5f11c289]
link showgoods to user--><path d="M1662.22,535.57 C1637.04,551.92 1600,582.44 1600,620.5 C1600,620.5 1600,620.5 1600,916 C1600,1017.03 1758.63,1049.41 1816.88,1057.89 " fill="none" id="showgoods-user" style="stroke:#A80036;stroke-width:1.0;"/><!--MD5=[ef04aef32e0539e406dceb6bdad07c40]
link searchfarmerName to user--><path d="M2331.95,761.03 C2318.56,769.93 2299.91,781.17 2282,788 C2199.83,819.36 2160.66,777.45 2088,827 C2030.35,866.32 2052.85,910.17 2003,959 C1958.67,1002.42 1892.54,1035.98 1859.05,1051.33 " fill="none" id="searchfarmerName-user" style="stroke:#A80036;stroke-width:1.0;"/><!--MD5=[edc93c2d5ee0b62bb2833179c3c12d28]
link searchfarmerLocal to user--><path d="M2179.67,760.87 C2164.21,769.37 2143.29,780.21 2124,788 C2081.37,805.22 2061.14,789.58 2025,818 C1967.84,862.96 1986.86,901.77 1942,959 C1916.63,991.37 1881.4,1023.67 1859.16,1042.86 " fill="none" id="searchfarmerLocal-user" style="stroke:#A80036;stroke-width:1.0;"/><!--MD5=[96da5b5a65813fe383d7f749b843cfb6]
link searchgoodsBrand to user--><path d="M1862.75,762.6 C1858.91,808.82 1847.22,949.5 1841.39,1019.73 " fill="none" id="searchgoodsBrand-user" style="stroke:#A80036;stroke-width:1.0;"/><!--MD5=[473b8b7cfeb08cd3b2dcbd7335331443]
link searchgoodsFast to user--><path d="M2015.36,761.94 C1997.17,774.92 1971.42,795.38 1954,818 C1940.76,835.19 1885.52,955.42 1856.31,1019.88 " fill="none" id="searchgoodsFast-user" style="stroke:#A80036;stroke-width:1.0;"/><!--MD5=[63eb7d23b577602124a43baf919d85ca]
link login to user--><path d="M1796.44,535.01 C1770.56,542.51 1740.22,553.8 1716,570 C1691.01,586.71 1671,590.44 1671,620.5 C1671,620.5 1671,620.5 1671,916 C1671,992.3 1771.91,1037.29 1816.85,1053.55 " fill="none" id="login-user" style="stroke:#A80036;stroke-width:1.0;"/><!--MD5=[89dd5940ba65dfa0c64a3350bec91716]
link goodsranking to user--><path d="M1991.77,534.51 C1903.87,554.41 1742,594.57 1742,620.5 C1742,620.5 1742,620.5 1742,916 C1742,969.61 1788.41,1018.53 1816.69,1043.36 " fill="none" id="goodsranking-user" style="stroke:#A80036;stroke-width:1.0;"/><!--MD5=[f624853086f1fb4ad2b781ccc3162963]
reverse link searchfarmer to searchfarmerName--><path d="M2351,557.39 C2351,607.03 2351,695.88 2351,730.81 " fill="none" id="searchfarmer-backto-searchfarmerName" style="stroke:#A80036;stroke-width:1.0;"/><polygon fill="none" points="2344,557.13,2351,537.13,2358,557.13,2344,557.13" style="stroke:#A80036;stroke-width:1.0;"/><!--MD5=[601e130e9294c8244643e538a2526178]
reverse link searchfarmer to searchfarmerLocal--><path d="M2330.29,553.71 C2297.83,602.61 2236.26,695.39 2212.6,731.04 " fill="none" id="searchfarmer-backto-searchfarmerLocal" style="stroke:#A80036;stroke-width:1.0;"/><polygon fill="none" points="2324.62,549.58,2341.52,536.79,2336.29,557.32,2324.62,549.58" style="stroke:#A80036;stroke-width:1.0;"/><!--MD5=[4a27ed0542dfddb9b88d456ad9f416f6]
reverse link searchgoods to searchgoodsBrand--><path d="M2175.27,546.61 C2102.54,593.08 1944.98,693.76 1886.47,731.14 " fill="none" id="searchgoods-backto-searchgoodsBrand" style="stroke:#A80036;stroke-width:1.0;"/><polygon fill="none" points="2171.59,540.65,2192.21,535.78,2179.13,552.45,2171.59,540.65" style="stroke:#A80036;stroke-width:1.0;"/><!--MD5=[3bb446182715f9b17b9b98bf08d2001a]
reverse link searchgoods to searchgoodsFast--><path d="M2189.2,552.65 C2151.04,601 2077.55,694.12 2048.87,730.46 " fill="none" id="searchgoods-backto-searchgoodsFast" style="stroke:#A80036;stroke-width:1.0;"/><polygon fill="none" points="2183.84,548.15,2201.72,536.79,2194.83,556.83,2183.84,548.15" style="stroke:#A80036;stroke-width:1.0;"/><!--MD5=[d1985aeab9a756492dde2217e7c14159]
link buy to buyer--><path d="M985.12,636.05 C971.43,645.41 952.2,657.63 934,666 C643.74,799.41 261.98,888.74 169.05,909.41 " fill="none" id="buy-buyer" style="stroke:#A80036;stroke-width:1.0;"/><!--MD5=[a1db9c96a42bb662ed22353a57a19826]
link eval to buyer--><path d="M562.37,63.35 C433.54,63.91 140.29,69.92 51,112 C25.13,124.19 6,129.4 6,158 C6,158 6,158 6,747.5 C6,821.01 87.13,878.52 126.74,902.22 " fill="none" id="eval-buyer" style="stroke:#A80036;stroke-width:1.0;"/><!--MD5=[37569dc0e7d48c487d6e48717ff192ed]
link favo to buyer--><path d="M744.81,75.38 C731.2,77.94 716.62,80.36 703,82 C574.65,97.48 239.84,58.81 122,112 C95.93,123.77 77,129.4 77,158 C77,158 77,158 77,747.5 C77,798.88 105.96,852.55 126.89,884.62 " fill="none" id="favo-buyer" style="stroke:#A80036;stroke-width:1.0;"/><!--MD5=[9bc15eea029220f00637675181250faa]
link recommend to buyer--><path d="M935.94,75.61 C922.77,77.92 908.95,80.18 896,82 C813.27,93.61 148,74.46 148,158 C148,158 148,158 148,747.5 C148,790.43 148,839.58 148,873.29 " fill="none" id="recommend-buyer" style="stroke:#A80036;stroke-width:1.0;"/><!--MD5=[c76509a045e2c1d90726fe2f7fce81f5]
reverse link payment to credit--><path d="M929.85,421.74 C851.28,478.15 731.48,564.15 679.07,601.78 " fill="none" id="payment-backto-credit" style="stroke:#A80036;stroke-width:1.0;"/><polygon fill="none" points="926.1,415.81,946.43,409.83,934.27,427.18,926.1,415.81" style="stroke:#A80036;stroke-width:1.0;"/><!--MD5=[4de5249f1a230d7e4016694ef8e1db3b]
reverse link payment to conveni--><path d="M963.09,434.59 C927.2,492.56 877.67,572.57 857.31,605.46 " fill="none" id="payment-backto-conveni" style="stroke:#A80036;stroke-width:1.0;"/><polygon fill="none" points="957.26,430.71,973.74,417.39,969.16,438.08,957.26,430.71" style="stroke:#A80036;stroke-width:1.0;"/><!--MD5=[f984437bb1c8c90a81e885cf17be19a9]
reverse link payment to buy--><path d="M1004,425.33 C1004,483.89 1004,571.36 1004,605.81 " fill="none" id="payment-backto-buy" style="stroke:#A80036;stroke-width:1.0;stroke-dasharray:7.0,7.0;"/><polygon fill="#A80036" points="1004,420.1,1000,429.1,1004,425.1,1008,429.1,1004,420.1" style="stroke:#A80036;stroke-width:1.0;"/><text fill="#000000" font-family="sans-serif" font-size="13" lengthAdjust="spacing" textLength="55" x="1005" y="526.9951">«include»</text><!--MD5=[7fa62836545e984f92d9d0c5c3e2d752]
reverse link getpoint to payment--><path d="M1100.67,179.94 C1084.44,211.27 1052.48,272.94 1029.75,316.8 " fill="none" id="getpoint-backto-payment" style="stroke:#A80036;stroke-width:1.0;stroke-dasharray:7.0,7.0;"/><polygon fill="#A80036" points="1103.13,175.18,1095.4402,181.3336,1100.8313,179.6203,1102.5446,185.0114,1103.13,175.18" style="stroke:#A80036;stroke-width:1.0;"/><text fill="#000000" font-family="sans-serif" font-size="13" lengthAdjust="spacing" textLength="55" x="1073" y="250.4951">«include»</text><!--MD5=[7772352bf00f0c290e0d80d4241e84a7]
link usepoint to payment--><path d="M1398.92,173.71 C1334.62,205.1 1174.91,283.07 1079.45,329.67 " fill="none" id="usepoint-to-payment" style="stroke:#A80036;stroke-width:1.0;stroke-dasharray:7.0,7.0;"/><polygon fill="#A80036" points="1074.95,331.86,1084.7928,331.5136,1079.4448,329.6699,1081.2885,324.3219,1074.95,331.86" style="stroke:#A80036;stroke-width:1.0;"/><text fill="#000000" font-family="sans-serif" font-size="13" lengthAdjust="spacing" textLength="60" x="1273" y="250.4951">«extends»</text><!--MD5=[62bc34636a78749b4ad2d45c86c3dfbd]
link conveniSystem to conveni--><path d="M522.77,409.27 C611.35,466.8 768.64,568.96 826.16,606.31 " fill="none" id="conveniSystem-conveni" style="stroke:#A80036;stroke-width:1.0;"/><!--MD5=[85efc6f11cbe8d9d435ca73209ae08fb]
link creditSystem to credit--><path d="M298.13,409.19 C323.33,455.76 370.98,530.75 434,571 C473.5,596.23 524.22,608.68 566.89,614.79 " fill="none" id="creditSystem-credit" style="stroke:#A80036;stroke-width:1.0;"/><!--MD5=[54b4fd2893f6c8f2a104b3cb52f1e1a3]
link createPages to vender--><path d="M3148.97,944.26 C3135.12,949.38 3120.67,954.52 3107,959 C2881.57,1032.93 2825.67,1056.64 2593,1103 C2537.57,1114.04 2138.25,1138.13 2088,1164 C2082.24,1166.96 2076.93,1171.21 2072.24,1175.85 " fill="none" id="createPages-vender" style="stroke:#A80036;stroke-width:1.0;"/><!--MD5=[e7f3ea80c7c0e5f6eada103d5bb4643e]
link salesTrends to vender--><path d="M2170.81,932.34 C2151.37,976.5 2097.33,1099.26 2068.94,1163.75 " fill="none" id="salesTrends-vender" style="stroke:#A80036;stroke-width:1.0;"/><!--MD5=[7e6faef07780150bf54cae241a7ce0ff]
link paymentManagement to vender--><path d="M2346.17,932.48 C2299.7,971.35 2180.7,1072.39 2088,1164 C2082.72,1169.22 2077.22,1175.02 2072.13,1180.56 " fill="none" id="paymentManagement-vender" style="stroke:#A80036;stroke-width:1.0;"/><!--MD5=[77b92084946da51ef47af5b9c21dca52]
link evalFeedback to vender--><path d="M2677.53,934.19 C2611.78,970.43 2457.44,1052.5 2320,1103 C2269.96,1121.38 2133.62,1136.42 2088,1164 C2082.3,1167.45 2076.94,1172.04 2072.18,1176.89 " fill="none" id="evalFeedback-vender" style="stroke:#A80036;stroke-width:1.0;"/><!--MD5=[19f065e5a989e3909237607f21c8f5a4]
link elearning to vender--><path d="M2906.63,939.72 C2811.69,978.85 2613.21,1057.14 2439,1103 C2400.72,1113.08 2122.71,1144.98 2088,1164 C2082.32,1167.11 2077.05,1171.43 2072.37,1176.09 " fill="none" id="elearning-vender" style="stroke:#A80036;stroke-width:1.0;"/><!--MD5=[8f45c3d449db651f030ff0fffdea1a10]
link inventoryManagement to vender--><path d="M2510.91,929.26 C2497.28,937.8 2479.13,949.12 2463,959 C2357.26,1023.8 2333.89,1045.52 2224,1103 C2194.65,1118.35 2114.84,1144.59 2088,1164 C2082.44,1168.02 2077.09,1172.98 2072.25,1178.04 " fill="none" id="inventoryManagement-vender" style="stroke:#A80036;stroke-width:1.0;"/><!--MD5=[170e0eb061ff0b7784572181d114c714]
link warehouseSystem to inventoryManagement--><path d="M2532,788.23 C2532,824.24 2532,874.75 2532,899.36 " fill="none" id="warehouseSystem-inventoryManagement" style="stroke:#A80036;stroke-width:1.0;"/><!--MD5=[6759b7d198a99d35ce9f3f794643e958]
@startuml
:閲覧者: as user
:購入者: as buyer
:販売者: as vender
:クレジット決済システム: as creditSystem
:コンビニ払いシステム: as conveniSystem
:倉庫管理システム: as warehouseSystem

rectangle common as c{
    usecase "商品閲覧" as showgoods
    usecase "商品検索" as searchgoods
    usecase "農家検索" as searchfarmer
    usecase "名前検索" as searchfarmerName
    usecase "ログイン,新規登録" as login
    usecase "売れ筋ランキング" as goodsranking
    usecase "地域別検索" as searchfarmerLocal
    usecase "ブランド検索" as searchgoodsBrand
    usecase "こだわり検索" as searchgoodsFast
}

rectangle buyer as b{
    usecase "商品購入" as buy
    usecase payment as "支払い
    - -
    extension point
    支払額の一部(全て)を\nポイントで支払う"
    usecase "クレジットカード払い" as credit
    usecase "コンビニ払い" as conveni
    usecase "農家の評価" as eval
    usecase "農家のお気に入り" as favo
    usecase "おすすめの商品表示" as recommend
    usecase "ポイント付与" as getpoint
    usecase "ポイント使用" as usepoint
    note top of (getpoint)
        支払額の1%をポイントとして付与
    end note
    note top of (usepoint)
        1ポイント=1円として使用
    end note

}

rectangle vender as v{
    usecase createPages as "商品ページ作成
    - -
    extension point
    テンプレートの使用"
    usecase "商品ページのテンプレート" as template

    usecase "売上推移の表示" as salesTrends
    usecase "支払い、売上管理" as paymentManagement
    usecase "在庫管理" as inventoryManagement
    usecase "評価のフィードバック" as evalFeedback
    usecase "オンラインビジネスのEラーニング" as elearning
}

createPages <... template : <<extends>>

'common
buyer - -|> user
user <|- - vender
showgoods - - - user
searchfarmerName - - - user
searchfarmerLocal - - - user
searchgoodsBrand - - - user
searchgoodsFast - - - user
login - - user
goodsranking - - - user

searchfarmer <|- - - searchfarmerName
searchfarmer <|- - - searchfarmerLocal
searchgoods <|- - - searchgoodsBrand
searchgoods <|- - - searchgoodsFast

'buyer
buy - - - buyer
eval - - - buyer
favo - - - buyer
recommend - - buyer
payment <|- - - credit
payment <|- - - conveni
payment <... buy : <<include>>
getpoint <... payment : <<include>>
usepoint ...> payment : <<extends>>
conveniSystem - - - conveni
creditSystem - - - credit


'vender
createPages - - - vender
salesTrends - - - vender
paymentManagement - - - vender
evalFeedback - - - vender
elearning - - - vender
inventoryManagement - - - vender
warehouseSystem - - inventoryManagement
@enduml

@startuml
:閲覧者: as user
:購入者: as buyer
:販売者: as vender
:クレジット決済システム: as creditSystem
:コンビニ払いシステム: as conveniSystem
:倉庫管理システム: as warehouseSystem

rectangle common as c{
    usecase "商品閲覧" as showgoods
    usecase "商品検索" as searchgoods
    usecase "農家検索" as searchfarmer
    usecase "名前検索" as searchfarmerName
    usecase "ログイン,新規登録" as login
    usecase "売れ筋ランキング" as goodsranking
    usecase "地域別検索" as searchfarmerLocal
    usecase "ブランド検索" as searchgoodsBrand
    usecase "こだわり検索" as searchgoodsFast
}

rectangle buyer as b{
    usecase "商品購入" as buy
    usecase payment as "支払い
    - -
    extension point
    支払額の一部(全て)を\nポイントで支払う"
    usecase "クレジットカード払い" as credit
    usecase "コンビニ払い" as conveni
    usecase "農家の評価" as eval
    usecase "農家のお気に入り" as favo
    usecase "おすすめの商品表示" as recommend
    usecase "ポイント付与" as getpoint
    usecase "ポイント使用" as usepoint
    note top of (getpoint)
        支払額の1%をポイントとして付与
    end note
    note top of (usepoint)
        1ポイント=1円として使用
    end note

}

rectangle vender as v{
    usecase createPages as "商品ページ作成
    - -
    extension point
    テンプレートの使用"
    usecase "商品ページのテンプレート" as template

    usecase "売上推移の表示" as salesTrends
    usecase "支払い、売上管理" as paymentManagement
    usecase "在庫管理" as inventoryManagement
    usecase "評価のフィードバック" as evalFeedback
    usecase "オンラインビジネスのEラーニング" as elearning
}

createPages <... template : <<extends>>

buyer - -|> user
user <|- - vender
showgoods - - - user
searchfarmerName - - - user
searchfarmerLocal - - - user
searchgoodsBrand - - - user
searchgoodsFast - - - user
login - - user
goodsranking - - - user

searchfarmer <|- - - searchfarmerName
searchfarmer <|- - - searchfarmerLocal
searchgoods <|- - - searchgoodsBrand
searchgoods <|- - - searchgoodsFast

buy - - - buyer
eval - - - buyer
favo - - - buyer
recommend - - buyer
payment <|- - - credit
payment <|- - - conveni
payment <... buy : <<include>>
getpoint <... payment : <<include>>
usepoint ...> payment : <<extends>>
conveniSystem - - - conveni
creditSystem - - - credit


createPages - - - vender
salesTrends - - - vender
paymentManagement - - - vender
evalFeedback - - - vender
elearning - - - vender
inventoryManagement - - - vender
warehouseSystem - - inventoryManagement
@enduml

PlantUML version 1.2021.7(Sun May 23 21:40:07 JST 2021)
(GPL source distribution)
Java Runtime: Java(TM) SE Runtime Environment
JVM: Java HotSpot(TM) 64-Bit Server VM
Default Encoding: MS932
Language: ja
Country: JP
--></g></svg>